<svg xmlns="http://www.w3.org/2000/svg" version="1.1" xmlns:xlink="http://www.w3.org/1999/xlink" xmlns:svgjs="http://svgjs.dev/svgjs" width="1500" height="935" viewBox="0 0 1500 935"><g transform="matrix(1,0,0,1,-0.9090909090909918,0.3785425101214628)"><svg viewBox="0 0 396 247" data-background-color="#000000" preserveAspectRatio="xMidYMid meet" height="935" width="1500" xmlns="http://www.w3.org/2000/svg" xmlns:xlink="http://www.w3.org/1999/xlink"><g id="tight-bounds" transform="matrix(1,0,0,1,0.2400000000000091,-0.09999999999999432)"><svg viewBox="0 0 395.52 247.2" height="247.2" width="395.52"><g><svg></svg></g><g><svg viewBox="0 0 395.52 247.2" height="247.2" width="395.52"><mask id="6914a0b2-1b53-4d50-8fef-8dc35af832b8"><rect width="640" height="400" fill="white"></rect><g transform="matrix(1,0,0,1,84.79770491803279,37.08)"><svg viewBox="0 0 225.9245901639344 173.04" height="173.04" width="225.9245901639344"><g><svg viewBox="0 0 225.9245901639344 173.04" height="173.04" width="225.9245901639344"><g><svg viewBox="0 0 225.9245901639344 173.04" height="173.04" width="225.9245901639344"><g><svg viewBox="0 0 225.9245901639344 173.04" height="173.04" width="225.9245901639344"><g id="SvgjsG2053"><svg viewBox="0 0 225.9245901639344 173.04" height="173.04" width="225.9245901639344" id="SvgjsSvg2052"><g><svg viewBox="0 0 225.9245901639344 173.04" height="173.04" width="225.9245901639344"><g transform="matrix(1,0,0,1,0,0)"><svg width="225.9245901639344" viewBox="-1.2000000000000002 -39.35 56.75 43.7" height="173.04" data-palette-color="url(#9a2c29d9-7b33-45a4-8b83-609e3c81324f)"><path d="M17.35-9.15L17.35-35 21.35-35 21.35-9.15Q21.35-6.4 20.15-4.25 18.95-2.1 16.82-0.88 14.7 0.35 11.85 0.35L11.85 0.35Q8.25 0.35 5.95-1.48 3.65-3.3 2.8-6.5L2.8-6.5 6.25-7.75Q6.6-6.45 7.28-5.4 7.95-4.35 9.08-3.75 10.2-3.15 11.85-3.15L11.85-3.15Q13.8-3.15 15-4.05 16.2-4.95 16.78-6.33 17.35-7.7 17.35-9.15L17.35-9.15ZM27.95-7.45L31.6-8.9Q31.9-7.55 32.87-6.23 33.85-4.9 35.57-4.03 37.3-3.15 40-3.15L40-3.15Q43.85-3.15 45.7-4.95 47.55-6.75 47.55-9.2L47.55-9.2Q47.55-11.15 46.5-12.4 45.45-13.65 43.65-14.48 41.85-15.3 39.6-15.95L39.6-15.95Q37.6-16.5 35.62-17.18 33.65-17.85 32.05-18.88 30.45-19.9 29.5-21.55 28.55-23.2 28.55-25.65L28.55-25.65Q28.55-28.6 29.95-30.78 31.35-32.95 33.9-34.15 36.45-35.35 39.85-35.35L39.85-35.35Q42.8-35.35 45-34.5 47.2-33.65 48.67-32.13 50.15-30.6 50.85-28.6L50.85-28.6 47.3-27.25Q46.95-28.4 45.95-29.48 44.95-30.55 43.35-31.25 41.75-31.95 39.7-31.95L39.7-31.95Q37.7-31.95 36.07-31.25 34.45-30.55 33.5-29.25 32.55-27.95 32.55-26.1L32.55-26.1Q32.55-24.1 33.67-22.93 34.8-21.75 36.67-21.03 38.55-20.3 40.8-19.65L40.8-19.65Q42.85-19 44.77-18.25 46.7-17.5 48.22-16.4 49.75-15.3 50.65-13.65 51.55-12 51.55-9.6L51.55-9.6Q51.55-6.95 50.3-4.67 49.05-2.4 46.52-1.03 44 0.35 40.05 0.35L40.05 0.35Q36.75 0.35 34.25-0.68 31.75-1.7 30.15-3.45 28.55-5.2 27.95-7.45L27.95-7.45Z" opacity="1" transform="matrix(1,0,0,1,0,0)" fill="black" class="wordmark-text-0" id="SvgjsPath2051" stroke-width="7" stroke="black" stroke-linejoin="round"></path></svg></g></svg></g></svg></g></svg></g></svg></g></svg></g></svg></g></mask><g transform="matrix(1,0,0,1,84.79770491803279,37.08)"><svg viewBox="0 0 225.9245901639344 173.04" height="173.04" width="225.9245901639344"><g><svg viewBox="0 0 225.9245901639344 173.04" height="173.04" width="225.9245901639344"><g><svg viewBox="0 0 225.9245901639344 173.04" height="173.04" width="225.9245901639344"><g><svg viewBox="0 0 225.9245901639344 173.04" height="173.04" width="225.9245901639344"><g id="textblocktransform"><svg viewBox="0 0 225.9245901639344 173.04" height="173.04" width="225.9245901639344" id="textblock"><g><svg viewBox="0 0 225.9245901639344 173.04" height="173.04" width="225.9245901639344"><g transform="matrix(1,0,0,1,0,0)"><svg width="225.9245901639344" viewBox="-1.2000000000000002 -39.35 56.75 43.7" height="173.04" data-palette-color="url(#9a2c29d9-7b33-45a4-8b83-609e3c81324f)"></svg></g></svg></g></svg></g></svg></g></svg></g></svg></g></svg></g><g mask="url(#6914a0b2-1b53-4d50-8fef-8dc35af832b8)"><g transform="matrix(2.896300762815507, 0, 0, 2.896300762815507, 138.29808674511517, 1)"><svg xmlns="http://www.w3.org/2000/svg" xmlns:xlink="http://www.w3.org/1999/xlink" version="1.1" x="0" y="0" viewBox="24.83940710972183 2.8 41.06059289027817 84.65971598945407" enable-background="new 0 0 90 90" xml:space="preserve" height="84.65971598945407" width="41.06059289027817" class="icon-none" data-fill-palette-color="accent" id="none"></svg></g></g></svg></g><defs></defs><mask id="6bf2c722-bd71-44eb-86c0-b016e51c54eb"><g id="SvgjsG2063"><svg viewBox="0 0 395.52 247.2" height="247.2" width="395.52"><g><svg></svg></g><g><svg viewBox="0 0 395.52 247.2" height="247.2" width="395.52"><mask id="SvgjsMask2062"><rect width="640" height="400" fill="black"></rect><g transform="matrix(1,0,0,1,84.79770491803279,37.08)"><svg viewBox="0 0 225.9245901639344 173.04" height="173.04" width="225.9245901639344"><g><svg viewBox="0 0 225.9245901639344 173.04" height="173.04" width="225.9245901639344"><g><svg viewBox="0 0 225.9245901639344 173.04" height="173.04" width="225.9245901639344"><g><svg viewBox="0 0 225.9245901639344 173.04" height="173.04" width="225.9245901639344"><g id="SvgjsG2061"><svg viewBox="0 0 225.9245901639344 173.04" height="173.04" width="225.9245901639344" id="SvgjsSvg2060"><g><svg viewBox="0 0 225.9245901639344 173.04" height="173.04" width="225.9245901639344"><g transform="matrix(1,0,0,1,0,0)"><svg width="225.9245901639344" viewBox="-1.2000000000000002 -39.35 56.75 43.7" height="173.04" data-palette-color="url(#9a2c29d9-7b33-45a4-8b83-609e3c81324f)"><path d="M17.35-9.15L17.35-35 21.35-35 21.35-9.15Q21.35-6.4 20.15-4.25 18.95-2.1 16.82-0.88 14.7 0.35 11.85 0.35L11.85 0.35Q8.25 0.35 5.95-1.48 3.65-3.3 2.8-6.5L2.8-6.5 6.25-7.75Q6.6-6.45 7.28-5.4 7.95-4.35 9.08-3.75 10.2-3.15 11.85-3.15L11.85-3.15Q13.8-3.15 15-4.05 16.2-4.95 16.78-6.33 17.35-7.7 17.35-9.15L17.35-9.15ZM27.95-7.45L31.6-8.9Q31.9-7.55 32.87-6.23 33.85-4.9 35.57-4.03 37.3-3.15 40-3.15L40-3.15Q43.85-3.15 45.7-4.95 47.55-6.75 47.55-9.2L47.55-9.2Q47.55-11.15 46.5-12.4 45.45-13.65 43.65-14.48 41.85-15.3 39.6-15.95L39.6-15.95Q37.6-16.5 35.62-17.18 33.65-17.85 32.05-18.88 30.45-19.9 29.5-21.55 28.55-23.2 28.55-25.65L28.55-25.65Q28.55-28.6 29.95-30.78 31.35-32.95 33.9-34.15 36.45-35.35 39.85-35.35L39.85-35.35Q42.8-35.35 45-34.5 47.2-33.65 48.67-32.13 50.15-30.6 50.85-28.6L50.85-28.6 47.3-27.25Q46.95-28.4 45.95-29.48 44.95-30.55 43.35-31.25 41.75-31.95 39.7-31.95L39.7-31.95Q37.7-31.95 36.07-31.25 34.45-30.55 33.5-29.25 32.55-27.95 32.55-26.1L32.55-26.1Q32.55-24.1 33.67-22.93 34.8-21.75 36.67-21.03 38.55-20.3 40.8-19.65L40.8-19.65Q42.85-19 44.77-18.25 46.7-17.5 48.22-16.4 49.75-15.3 50.65-13.65 51.55-12 51.55-9.6L51.55-9.6Q51.55-6.95 50.3-4.67 49.05-2.4 46.52-1.03 44 0.35 40.05 0.35L40.05 0.35Q36.75 0.35 34.25-0.68 31.75-1.7 30.15-3.45 28.55-5.2 27.95-7.45L27.95-7.45Z" opacity="1" transform="matrix(1,0,0,1,0,0)" fill="black" class="wordmark-text-0" id="SvgjsPath2059" stroke-width="7" stroke="black" stroke-linejoin="round"></path></svg></g></svg></g></svg></g></svg></g></svg></g></svg></g></svg></g></mask><g transform="matrix(1,0,0,1,84.79770491803279,37.08)"><svg viewBox="0 0 225.9245901639344 173.04" height="173.04" width="225.9245901639344"><g><svg viewBox="0 0 225.9245901639344 173.04" height="173.04" width="225.9245901639344"><g><svg viewBox="0 0 225.9245901639344 173.04" height="173.04" width="225.9245901639344"><g><svg viewBox="0 0 225.9245901639344 173.04" height="173.04" width="225.9245901639344"><g id="SvgjsG2058"><svg viewBox="0 0 225.9245901639344 173.04" height="173.04" width="225.9245901639344" id="SvgjsSvg2057"><g><svg viewBox="0 0 225.9245901639344 173.04" height="173.04" width="225.9245901639344"><g transform="matrix(1,0,0,1,0,0)"><svg width="225.9245901639344" viewBox="-1.2000000000000002 -39.35 56.75 43.7" height="173.04" data-palette-color="url(#9a2c29d9-7b33-45a4-8b83-609e3c81324f)"><path d="M17.35-9.15L17.35-35 21.35-35 21.35-9.15Q21.35-6.4 20.15-4.25 18.95-2.1 16.82-0.88 14.7 0.35 11.85 0.35L11.85 0.35Q8.25 0.35 5.95-1.48 3.65-3.3 2.8-6.5L2.8-6.5 6.25-7.75Q6.6-6.45 7.28-5.4 7.95-4.35 9.08-3.75 10.2-3.15 11.85-3.15L11.85-3.15Q13.8-3.15 15-4.05 16.2-4.95 16.78-6.33 17.35-7.7 17.35-9.15L17.35-9.15ZM27.95-7.45L31.6-8.9Q31.9-7.55 32.87-6.23 33.85-4.9 35.57-4.03 37.3-3.15 40-3.15L40-3.15Q43.85-3.15 45.7-4.95 47.55-6.75 47.55-9.2L47.55-9.2Q47.55-11.15 46.5-12.4 45.45-13.65 43.65-14.48 41.85-15.3 39.6-15.95L39.6-15.95Q37.6-16.5 35.62-17.18 33.65-17.85 32.05-18.88 30.45-19.9 29.5-21.55 28.55-23.2 28.55-25.65L28.55-25.65Q28.55-28.6 29.95-30.78 31.35-32.95 33.9-34.15 36.45-35.35 39.85-35.35L39.85-35.35Q42.8-35.35 45-34.5 47.2-33.65 48.67-32.13 50.15-30.6 50.85-28.6L50.85-28.6 47.3-27.25Q46.95-28.4 45.95-29.48 44.95-30.55 43.35-31.25 41.75-31.95 39.7-31.95L39.7-31.95Q37.7-31.95 36.07-31.25 34.45-30.55 33.5-29.25 32.55-27.95 32.55-26.1L32.55-26.1Q32.55-24.1 33.67-22.93 34.8-21.75 36.67-21.03 38.55-20.3 40.8-19.65L40.8-19.65Q42.85-19 44.77-18.25 46.7-17.5 48.22-16.4 49.75-15.3 50.65-13.65 51.55-12 51.55-9.6L51.55-9.6Q51.55-6.95 50.3-4.67 49.05-2.4 46.52-1.03 44 0.35 40.05 0.35L40.05 0.35Q36.75 0.35 34.25-0.68 31.75-1.7 30.15-3.45 28.55-5.2 27.95-7.45L27.95-7.45Z" opacity="1" transform="matrix(1,0,0,1,0,0)" fill="white" class="wordmark-text-0" id="SvgjsPath2056"></path></svg></g></svg></g></svg></g></svg></g></svg></g></svg></g></svg></g><g mask="url(#6914a0b2-1b53-4d50-8fef-8dc35af832b8)"><g transform="matrix(2.896300762815507, 0, 0, 2.896300762815507, 138.29808674511517, 1)"><svg xmlns="http://www.w3.org/2000/svg" xmlns:xlink="http://www.w3.org/1999/xlink" version="1.1" x="0" y="0" viewBox="24.83940710972183 2.8 41.06059289027817 84.65971598945407" enable-background="new 0 0 90 90" xml:space="preserve" height="84.65971598945407" width="41.06059289027817" class="icon-none" data-fill-palette-color="accent" id="SvgjsSvg2055"><path d="M33.3 9.2c-0.7 0.9-1.4 1.8-1.9 2.8-16 25.4 2.4 56 1.6 73.4 0 3.4 13.3 2.4 17.5-1.6 4.2-3.9-11-24-11-40.2 0-3.9 0.5-7.2 1.2-9.9 2.2 0.8 4.5 1.3 7 1.3 10 0 18.2-7.2 18.2-16.1S57.8 2.8 47.8 2.8C41.9 2.8 36.7 5.3 33.3 9.2 33.3 9.2 33.3 9.2 33.3 9.2 33.3 9.2 33.3 9.2 33.3 9.2z" fill="black"></path></svg></g></g></svg></g><defs><mask></mask></defs></svg><rect width="395.52" height="247.2" fill="black" stroke="none" visibility="hidden"></rect></g></mask><linearGradient x1="0.054" x2="0.941" y1="0.5" y2="0.5" id="9a2c29d9-7b33-45a4-8b83-609e3c81324f"><stop stop-color="#864d25" offset="0"></stop><stop stop-color="#f1c4b3" offset="0.498"></stop><stop stop-color="#864d25" offset="1"></stop></linearGradient><rect width="395.52" height="247.2" fill="url(#9a2c29d9-7b33-45a4-8b83-609e3c81324f)" mask="url(#6bf2c722-bd71-44eb-86c0-b016e51c54eb)" data-fill-palette-color="primary"></rect><mask id="26eef2d4-84ef-4b0c-b563-42755f0ad08f"><g id="SvgjsG2098"><svg viewBox="0 0 395.52 247.2" height="247.2" width="395.52"><g><svg></svg></g><g><svg viewBox="0 0 395.52 247.2" height="247.2" width="395.52"><mask id="SvgjsMask2097"><rect width="640" height="400" fill="black"></rect><g transform="matrix(1,0,0,1,84.79770491803279,37.08)"><svg viewBox="0 0 225.9245901639344 173.04" height="173.04" width="225.9245901639344"><g><svg viewBox="0 0 225.9245901639344 173.04" height="173.04" width="225.9245901639344"><g><svg viewBox="0 0 225.9245901639344 173.04" height="173.04" width="225.9245901639344"><g><svg viewBox="0 0 225.9245901639344 173.04" height="173.04" width="225.9245901639344"><g id="SvgjsG2096"><svg viewBox="0 0 225.9245901639344 173.04" height="173.04" width="225.9245901639344" id="SvgjsSvg2095"><g><svg viewBox="0 0 225.9245901639344 173.04" height="173.04" width="225.9245901639344"><g transform="matrix(1,0,0,1,0,0)"><svg width="225.9245901639344" viewBox="-1.2000000000000002 -39.35 56.75 43.7" height="173.04" data-palette-color="url(#9a2c29d9-7b33-45a4-8b83-609e3c81324f)"><path d="M17.35-9.15L17.35-35 21.35-35 21.35-9.15Q21.35-6.4 20.15-4.25 18.95-2.1 16.82-0.88 14.7 0.35 11.85 0.35L11.85 0.35Q8.25 0.35 5.95-1.48 3.65-3.3 2.8-6.5L2.8-6.5 6.25-7.75Q6.6-6.45 7.28-5.4 7.95-4.35 9.08-3.75 10.2-3.15 11.85-3.15L11.85-3.15Q13.8-3.15 15-4.05 16.2-4.95 16.78-6.33 17.35-7.7 17.35-9.15L17.35-9.15ZM27.95-7.45L31.6-8.9Q31.9-7.55 32.87-6.23 33.85-4.9 35.57-4.03 37.3-3.15 40-3.15L40-3.15Q43.85-3.15 45.7-4.95 47.55-6.75 47.55-9.2L47.55-9.2Q47.55-11.15 46.5-12.4 45.45-13.65 43.65-14.48 41.85-15.3 39.6-15.95L39.6-15.95Q37.6-16.5 35.62-17.18 33.65-17.85 32.05-18.88 30.45-19.9 29.5-21.55 28.55-23.2 28.55-25.65L28.55-25.65Q28.55-28.6 29.95-30.78 31.35-32.95 33.9-34.15 36.45-35.35 39.85-35.35L39.85-35.35Q42.8-35.35 45-34.5 47.2-33.65 48.67-32.13 50.15-30.6 50.85-28.6L50.85-28.6 47.3-27.25Q46.95-28.4 45.95-29.48 44.95-30.55 43.35-31.25 41.75-31.95 39.7-31.95L39.7-31.95Q37.7-31.95 36.07-31.25 34.45-30.55 33.5-29.25 32.55-27.95 32.55-26.1L32.55-26.1Q32.55-24.1 33.67-22.93 34.8-21.75 36.67-21.03 38.55-20.3 40.8-19.65L40.8-19.65Q42.85-19 44.77-18.25 46.7-17.5 48.22-16.4 49.75-15.3 50.65-13.65 51.55-12 51.55-9.6L51.55-9.6Q51.55-6.95 50.3-4.67 49.05-2.4 46.52-1.03 44 0.35 40.05 0.35L40.05 0.35Q36.75 0.35 34.25-0.68 31.75-1.7 30.15-3.45 28.55-5.2 27.95-7.45L27.95-7.45Z" opacity="1" transform="matrix(1,0,0,1,0,0)" fill="black" class="wordmark-text-0" id="SvgjsPath2094" stroke-width="7" stroke="black" stroke-linejoin="round"></path></svg></g></svg></g></svg></g></svg></g></svg></g></svg></g></svg></g></mask><g transform="matrix(1,0,0,1,84.79770491803279,37.08)"><svg viewBox="0 0 225.9245901639344 173.04" height="173.04" width="225.9245901639344"><g><svg viewBox="0 0 225.9245901639344 173.04" height="173.04" width="225.9245901639344"><g><svg viewBox="0 0 225.9245901639344 173.04" height="173.04" width="225.9245901639344"><g><svg viewBox="0 0 225.9245901639344 173.04" height="173.04" width="225.9245901639344"><g id="SvgjsG2093"><svg viewBox="0 0 225.9245901639344 173.04" height="173.04" width="225.9245901639344" id="SvgjsSvg2092"><g><svg viewBox="0 0 225.9245901639344 173.04" height="173.04" width="225.9245901639344"><g transform="matrix(1,0,0,1,0,0)"><svg width="225.9245901639344" viewBox="-1.2000000000000002 -39.35 56.75 43.7" height="173.04" data-palette-color="url(#9a2c29d9-7b33-45a4-8b83-609e3c81324f)"></svg></g></svg></g></svg></g></svg></g></svg></g></svg></g></svg></g><g mask="url(#6914a0b2-1b53-4d50-8fef-8dc35af832b8)"><g transform="matrix(2.896300762815507, 0, 0, 2.896300762815507, 138.29808674511517, 1)"><svg xmlns="http://www.w3.org/2000/svg" xmlns:xlink="http://www.w3.org/1999/xlink" version="1.1" x="0" y="0" viewBox="24.83940710972183 2.8 41.06059289027817 84.65971598945407" enable-background="new 0 0 90 90" xml:space="preserve" height="84.65971598945407" width="41.06059289027817" class="icon-none" data-fill-palette-color="accent" id="SvgjsSvg2091"><path d="M33.3 9.2c-0.7 0.9-1.4 1.8-1.9 2.8-16 25.4 2.4 56 1.6 73.4 0 3.4 13.3 2.4 17.5-1.6 4.2-3.9-11-24-11-40.2 0-3.9 0.5-7.2 1.2-9.9 2.2 0.8 4.5 1.3 7 1.3 10 0 18.2-7.2 18.2-16.1S57.8 2.8 47.8 2.8C41.9 2.8 36.7 5.3 33.3 9.2 33.3 9.2 33.3 9.2 33.3 9.2 33.3 9.2 33.3 9.2 33.3 9.2z" fill="white"></path></svg></g></g></svg></g><defs><mask></mask></defs><mask><g id="SvgjsG2090"><svg viewBox="0 0 395.52 247.2" height="247.2" width="395.52"><g><svg></svg></g><g><svg viewBox="0 0 395.52 247.2" height="247.2" width="395.52"><mask id="SvgjsMask2089"><rect width="640" height="400" fill="black"></rect><g transform="matrix(1,0,0,1,84.79770491803279,37.08)"><svg viewBox="0 0 225.9245901639344 173.04" height="173.04" width="225.9245901639344"><g><svg viewBox="0 0 225.9245901639344 173.04" height="173.04" width="225.9245901639344"><g><svg viewBox="0 0 225.9245901639344 173.04" height="173.04" width="225.9245901639344"><g><svg viewBox="0 0 225.9245901639344 173.04" height="173.04" width="225.9245901639344"><g id="SvgjsG2088"><svg viewBox="0 0 225.9245901639344 173.04" height="173.04" width="225.9245901639344" id="SvgjsSvg2087"><g><svg viewBox="0 0 225.9245901639344 173.04" height="173.04" width="225.9245901639344"><g transform="matrix(1,0,0,1,0,0)"><svg width="225.9245901639344" viewBox="-1.2000000000000002 -39.35 56.75 43.7" height="173.04" data-palette-color="url(#9a2c29d9-7b33-45a4-8b83-609e3c81324f)"><path d="M17.35-9.15L17.35-35 21.35-35 21.35-9.15Q21.35-6.4 20.15-4.25 18.95-2.1 16.82-0.88 14.7 0.35 11.85 0.35L11.85 0.35Q8.25 0.35 5.95-1.48 3.65-3.3 2.8-6.5L2.8-6.5 6.25-7.75Q6.6-6.45 7.28-5.4 7.95-4.35 9.08-3.75 10.2-3.15 11.85-3.15L11.85-3.15Q13.8-3.15 15-4.05 16.2-4.95 16.78-6.33 17.35-7.7 17.35-9.15L17.35-9.15ZM27.95-7.45L31.6-8.9Q31.9-7.55 32.87-6.23 33.85-4.9 35.57-4.03 37.3-3.15 40-3.15L40-3.15Q43.85-3.15 45.7-4.95 47.55-6.75 47.55-9.2L47.55-9.2Q47.55-11.15 46.5-12.4 45.45-13.65 43.65-14.48 41.85-15.3 39.6-15.95L39.6-15.95Q37.6-16.5 35.62-17.18 33.65-17.85 32.05-18.88 30.45-19.9 29.5-21.55 28.55-23.2 28.55-25.65L28.55-25.65Q28.55-28.6 29.95-30.78 31.35-32.95 33.9-34.15 36.45-35.35 39.85-35.35L39.85-35.35Q42.8-35.35 45-34.5 47.2-33.65 48.67-32.13 50.15-30.6 50.85-28.6L50.85-28.6 47.3-27.25Q46.95-28.4 45.95-29.48 44.95-30.55 43.35-31.25 41.75-31.95 39.7-31.95L39.7-31.95Q37.7-31.95 36.07-31.25 34.45-30.55 33.5-29.25 32.55-27.95 32.55-26.1L32.55-26.1Q32.55-24.1 33.67-22.93 34.8-21.75 36.67-21.03 38.55-20.3 40.8-19.65L40.8-19.65Q42.85-19 44.77-18.25 46.7-17.5 48.22-16.4 49.75-15.3 50.65-13.65 51.55-12 51.55-9.6L51.55-9.6Q51.55-6.95 50.3-4.67 49.05-2.4 46.52-1.03 44 0.35 40.05 0.35L40.05 0.35Q36.75 0.35 34.25-0.68 31.75-1.7 30.15-3.45 28.55-5.2 27.95-7.45L27.95-7.45Z" opacity="1" transform="matrix(1,0,0,1,0,0)" fill="black" class="wordmark-text-0" id="SvgjsPath2086" stroke-width="7" stroke="black" stroke-linejoin="round"></path></svg></g></svg></g></svg></g></svg></g></svg></g></svg></g></svg></g></mask><g transform="matrix(1,0,0,1,84.79770491803279,37.08)"><svg viewBox="0 0 225.9245901639344 173.04" height="173.04" width="225.9245901639344"><g><svg viewBox="0 0 225.9245901639344 173.04" height="173.04" width="225.9245901639344"><g><svg viewBox="0 0 225.9245901639344 173.04" height="173.04" width="225.9245901639344"><g><svg viewBox="0 0 225.9245901639344 173.04" height="173.04" width="225.9245901639344"><g id="SvgjsG2085"><svg viewBox="0 0 225.9245901639344 173.04" height="173.04" width="225.9245901639344" id="SvgjsSvg2084"><g><svg viewBox="0 0 225.9245901639344 173.04" height="173.04" width="225.9245901639344"><g transform="matrix(1,0,0,1,0,0)"><svg width="225.9245901639344" viewBox="-1.2000000000000002 -39.35 56.75 43.7" height="173.04" data-palette-color="url(#9a2c29d9-7b33-45a4-8b83-609e3c81324f)"><path d="M17.35-9.15L17.35-35 21.35-35 21.35-9.15Q21.35-6.4 20.15-4.25 18.95-2.1 16.82-0.88 14.7 0.35 11.85 0.35L11.85 0.35Q8.25 0.35 5.95-1.48 3.65-3.3 2.8-6.5L2.8-6.5 6.25-7.75Q6.6-6.45 7.28-5.4 7.95-4.35 9.08-3.75 10.2-3.15 11.85-3.15L11.85-3.15Q13.8-3.15 15-4.05 16.2-4.95 16.78-6.33 17.35-7.7 17.35-9.15L17.35-9.15ZM27.95-7.45L31.6-8.9Q31.9-7.55 32.87-6.23 33.85-4.9 35.57-4.03 37.3-3.15 40-3.15L40-3.15Q43.85-3.15 45.7-4.95 47.55-6.75 47.55-9.2L47.55-9.2Q47.55-11.15 46.5-12.4 45.45-13.65 43.65-14.48 41.85-15.3 39.6-15.95L39.6-15.95Q37.6-16.5 35.62-17.18 33.65-17.85 32.05-18.88 30.45-19.9 29.5-21.55 28.55-23.2 28.55-25.65L28.55-25.65Q28.55-28.6 29.95-30.78 31.35-32.95 33.9-34.15 36.45-35.35 39.85-35.35L39.85-35.35Q42.8-35.35 45-34.5 47.2-33.65 48.67-32.13 50.15-30.6 50.85-28.6L50.85-28.6 47.3-27.25Q46.95-28.4 45.95-29.48 44.95-30.55 43.35-31.25 41.75-31.95 39.7-31.95L39.7-31.95Q37.7-31.95 36.07-31.25 34.45-30.55 33.5-29.25 32.55-27.95 32.55-26.1L32.55-26.1Q32.55-24.1 33.67-22.93 34.8-21.75 36.67-21.03 38.55-20.3 40.8-19.65L40.8-19.65Q42.85-19 44.77-18.25 46.7-17.5 48.22-16.4 49.75-15.3 50.65-13.65 51.55-12 51.55-9.6L51.55-9.6Q51.55-6.95 50.3-4.67 49.05-2.4 46.52-1.03 44 0.35 40.05 0.35L40.05 0.35Q36.75 0.35 34.25-0.68 31.75-1.7 30.15-3.45 28.55-5.2 27.95-7.45L27.95-7.45Z" opacity="1" transform="matrix(1,0,0,1,0,0)" fill="black" class="wordmark-text-0" id="SvgjsPath2083"></path></svg></g></svg></g></svg></g></svg></g></svg></g></svg></g></svg></g><g mask="url(#6914a0b2-1b53-4d50-8fef-8dc35af832b8)"><g transform="matrix(2.896300762815507, 0, 0, 2.896300762815507, 138.29808674511517, 1)"><svg xmlns="http://www.w3.org/2000/svg" xmlns:xlink="http://www.w3.org/1999/xlink" version="1.1" x="0" y="0" viewBox="24.83940710972183 2.8 41.06059289027817 84.65971598945407" enable-background="new 0 0 90 90" xml:space="preserve" height="84.65971598945407" width="41.06059289027817" class="icon-none" data-fill-palette-color="accent" id="SvgjsSvg2082"><path d="M33.3 9.2c-0.7 0.9-1.4 1.8-1.9 2.8-16 25.4 2.4 56 1.6 73.4 0 3.4 13.3 2.4 17.5-1.6 4.2-3.9-11-24-11-40.2 0-3.9 0.5-7.2 1.2-9.9 2.2 0.8 4.5 1.3 7 1.3 10 0 18.2-7.2 18.2-16.1S57.8 2.8 47.8 2.8C41.9 2.8 36.7 5.3 33.3 9.2 33.3 9.2 33.3 9.2 33.3 9.2 33.3 9.2 33.3 9.2 33.3 9.2z" fill="black"></path></svg></g></g></svg></g><defs><mask></mask></defs></svg><rect width="395.52" height="247.2" fill="black" stroke="none" visibility="hidden"></rect></g></mask></svg><rect width="395.52" height="247.2" fill="black" stroke="none" visibility="hidden"></rect></g></mask><linearGradient x1="0.054" x2="0.941" y1="0.5" y2="0.5" id="60fff27e-9c29-4604-9a7b-884a94e72733"><stop stop-color="#864d25" offset="0"></stop><stop stop-color="#f1c4b3" offset="0.498"></stop><stop stop-color="#864d25" offset="1"></stop></linearGradient><rect width="395.52" height="247.2" fill="url(#60fff27e-9c29-4604-9a7b-884a94e72733)" mask="url(#26eef2d4-84ef-4b0c-b563-42755f0ad08f)" data-fill-palette-color="accent"></rect></svg><rect width="395.52" height="247.2" fill="none" stroke="none" visibility="hidden"></rect></g></svg></g></svg>